<mxfile host="app.diagrams.net" modified="2020-12-20T14:29:39.441Z" agent="5.0 (Windows NT 10.0; Win64; x64) AppleWebKit/537.36 (KHTML, like Gecko) Chrome/87.0.4280.88 Safari/537.36" etag="a5O8RO7kOX7U0Wwl7xyX" version="14.1.1" type="github">
  <diagram id="VfDAtAIIfdBek5wRasx2" name="Page-1">
    <mxGraphModel dx="1038" dy="580" grid="1" gridSize="10" guides="1" tooltips="1" connect="1" arrows="1" fold="1" page="1" pageScale="1" pageWidth="827" pageHeight="1169" math="0" shadow="0">
      <root>
        <mxCell id="0" />
        <mxCell id="1" parent="0" />
        <mxCell id="3uLC-8A397c7G4ZFtg_c-39" value="" style="shape=table;html=1;whiteSpace=wrap;startSize=0;container=1;collapsible=0;childLayout=tableLayout;" vertex="1" parent="1">
          <mxGeometry x="70" y="560" width="690" height="450" as="geometry" />
        </mxCell>
        <mxCell id="3uLC-8A397c7G4ZFtg_c-40" value="" style="shape=partialRectangle;html=1;whiteSpace=wrap;collapsible=0;dropTarget=0;pointerEvents=0;fillColor=none;top=0;left=0;bottom=0;right=0;points=[[0,0.5],[1,0.5]];portConstraint=eastwest;" vertex="1" parent="3uLC-8A397c7G4ZFtg_c-39">
          <mxGeometry width="690" height="75" as="geometry" />
        </mxCell>
        <mxCell id="3uLC-8A397c7G4ZFtg_c-41" value="50" style="shape=partialRectangle;html=1;whiteSpace=wrap;connectable=0;overflow=hidden;fillColor=none;top=0;left=0;bottom=0;right=0;" vertex="1" parent="3uLC-8A397c7G4ZFtg_c-40">
          <mxGeometry width="99" height="75" as="geometry" />
        </mxCell>
        <mxCell id="3uLC-8A397c7G4ZFtg_c-42" value="51" style="shape=partialRectangle;html=1;whiteSpace=wrap;connectable=0;overflow=hidden;fillColor=none;top=0;left=0;bottom=0;right=0;" vertex="1" parent="3uLC-8A397c7G4ZFtg_c-40">
          <mxGeometry x="99" width="98" height="75" as="geometry" />
        </mxCell>
        <mxCell id="3uLC-8A397c7G4ZFtg_c-43" value="52" style="shape=partialRectangle;html=1;whiteSpace=wrap;connectable=0;overflow=hidden;fillColor=none;top=0;left=0;bottom=0;right=0;" vertex="1" parent="3uLC-8A397c7G4ZFtg_c-40">
          <mxGeometry x="197" width="99" height="75" as="geometry" />
        </mxCell>
        <mxCell id="3uLC-8A397c7G4ZFtg_c-44" value="53" style="shape=partialRectangle;html=1;whiteSpace=wrap;connectable=0;overflow=hidden;fillColor=none;top=0;left=0;bottom=0;right=0;" vertex="1" parent="3uLC-8A397c7G4ZFtg_c-40">
          <mxGeometry x="296" width="98" height="75" as="geometry" />
        </mxCell>
        <mxCell id="3uLC-8A397c7G4ZFtg_c-45" value="54" style="shape=partialRectangle;html=1;whiteSpace=wrap;connectable=0;overflow=hidden;fillColor=none;top=0;left=0;bottom=0;right=0;" vertex="1" parent="3uLC-8A397c7G4ZFtg_c-40">
          <mxGeometry x="394" width="99" height="75" as="geometry" />
        </mxCell>
        <mxCell id="3uLC-8A397c7G4ZFtg_c-46" value="55" style="shape=partialRectangle;html=1;whiteSpace=wrap;connectable=0;overflow=hidden;fillColor=none;top=0;left=0;bottom=0;right=0;" vertex="1" parent="3uLC-8A397c7G4ZFtg_c-40">
          <mxGeometry x="493" width="98" height="75" as="geometry" />
        </mxCell>
        <mxCell id="3uLC-8A397c7G4ZFtg_c-47" value="56" style="shape=partialRectangle;html=1;whiteSpace=wrap;connectable=0;overflow=hidden;fillColor=none;top=0;left=0;bottom=0;right=0;" vertex="1" parent="3uLC-8A397c7G4ZFtg_c-40">
          <mxGeometry x="591" width="99" height="75" as="geometry" />
        </mxCell>
        <mxCell id="3uLC-8A397c7G4ZFtg_c-48" value="" style="shape=partialRectangle;html=1;whiteSpace=wrap;collapsible=0;dropTarget=0;pointerEvents=0;fillColor=none;top=0;left=0;bottom=0;right=0;points=[[0,0.5],[1,0.5]];portConstraint=eastwest;" vertex="1" parent="3uLC-8A397c7G4ZFtg_c-39">
          <mxGeometry y="75" width="690" height="75" as="geometry" />
        </mxCell>
        <mxCell id="3uLC-8A397c7G4ZFtg_c-49" value="40" style="shape=partialRectangle;html=1;whiteSpace=wrap;connectable=0;overflow=hidden;fillColor=none;top=0;left=0;bottom=0;right=0;" vertex="1" parent="3uLC-8A397c7G4ZFtg_c-48">
          <mxGeometry width="99" height="75" as="geometry" />
        </mxCell>
        <mxCell id="3uLC-8A397c7G4ZFtg_c-50" value="41" style="shape=partialRectangle;html=1;whiteSpace=wrap;connectable=0;overflow=hidden;fillColor=none;top=0;left=0;bottom=0;right=0;" vertex="1" parent="3uLC-8A397c7G4ZFtg_c-48">
          <mxGeometry x="99" width="98" height="75" as="geometry" />
        </mxCell>
        <mxCell id="3uLC-8A397c7G4ZFtg_c-51" value="42" style="shape=partialRectangle;html=1;whiteSpace=wrap;connectable=0;overflow=hidden;fillColor=none;top=0;left=0;bottom=0;right=0;" vertex="1" parent="3uLC-8A397c7G4ZFtg_c-48">
          <mxGeometry x="197" width="99" height="75" as="geometry" />
        </mxCell>
        <mxCell id="3uLC-8A397c7G4ZFtg_c-52" value="43" style="shape=partialRectangle;html=1;whiteSpace=wrap;connectable=0;overflow=hidden;fillColor=none;top=0;left=0;bottom=0;right=0;" vertex="1" parent="3uLC-8A397c7G4ZFtg_c-48">
          <mxGeometry x="296" width="98" height="75" as="geometry" />
        </mxCell>
        <mxCell id="3uLC-8A397c7G4ZFtg_c-53" value="44" style="shape=partialRectangle;html=1;whiteSpace=wrap;connectable=0;overflow=hidden;fillColor=none;top=0;left=0;bottom=0;right=0;" vertex="1" parent="3uLC-8A397c7G4ZFtg_c-48">
          <mxGeometry x="394" width="99" height="75" as="geometry" />
        </mxCell>
        <mxCell id="3uLC-8A397c7G4ZFtg_c-54" value="45" style="shape=partialRectangle;html=1;whiteSpace=wrap;connectable=0;overflow=hidden;fillColor=none;top=0;left=0;bottom=0;right=0;" vertex="1" parent="3uLC-8A397c7G4ZFtg_c-48">
          <mxGeometry x="493" width="98" height="75" as="geometry" />
        </mxCell>
        <mxCell id="3uLC-8A397c7G4ZFtg_c-55" value="46" style="shape=partialRectangle;html=1;whiteSpace=wrap;connectable=0;overflow=hidden;fillColor=none;top=0;left=0;bottom=0;right=0;" vertex="1" parent="3uLC-8A397c7G4ZFtg_c-48">
          <mxGeometry x="591" width="99" height="75" as="geometry" />
        </mxCell>
        <mxCell id="3uLC-8A397c7G4ZFtg_c-56" value="" style="shape=partialRectangle;html=1;whiteSpace=wrap;collapsible=0;dropTarget=0;pointerEvents=0;fillColor=none;top=0;left=0;bottom=0;right=0;points=[[0,0.5],[1,0.5]];portConstraint=eastwest;" vertex="1" parent="3uLC-8A397c7G4ZFtg_c-39">
          <mxGeometry y="150" width="690" height="75" as="geometry" />
        </mxCell>
        <mxCell id="3uLC-8A397c7G4ZFtg_c-57" value="30" style="shape=partialRectangle;html=1;whiteSpace=wrap;connectable=0;overflow=hidden;fillColor=none;top=0;left=0;bottom=0;right=0;" vertex="1" parent="3uLC-8A397c7G4ZFtg_c-56">
          <mxGeometry width="99" height="75" as="geometry" />
        </mxCell>
        <mxCell id="3uLC-8A397c7G4ZFtg_c-58" value="31" style="shape=partialRectangle;html=1;whiteSpace=wrap;connectable=0;overflow=hidden;fillColor=none;top=0;left=0;bottom=0;right=0;" vertex="1" parent="3uLC-8A397c7G4ZFtg_c-56">
          <mxGeometry x="99" width="98" height="75" as="geometry" />
        </mxCell>
        <mxCell id="3uLC-8A397c7G4ZFtg_c-59" value="32" style="shape=partialRectangle;html=1;whiteSpace=wrap;connectable=0;overflow=hidden;fillColor=none;top=0;left=0;bottom=0;right=0;" vertex="1" parent="3uLC-8A397c7G4ZFtg_c-56">
          <mxGeometry x="197" width="99" height="75" as="geometry" />
        </mxCell>
        <mxCell id="3uLC-8A397c7G4ZFtg_c-60" value="33" style="shape=partialRectangle;html=1;whiteSpace=wrap;connectable=0;overflow=hidden;fillColor=none;top=0;left=0;bottom=0;right=0;" vertex="1" parent="3uLC-8A397c7G4ZFtg_c-56">
          <mxGeometry x="296" width="98" height="75" as="geometry" />
        </mxCell>
        <mxCell id="3uLC-8A397c7G4ZFtg_c-61" value="34" style="shape=partialRectangle;html=1;whiteSpace=wrap;connectable=0;overflow=hidden;fillColor=none;top=0;left=0;bottom=0;right=0;" vertex="1" parent="3uLC-8A397c7G4ZFtg_c-56">
          <mxGeometry x="394" width="99" height="75" as="geometry" />
        </mxCell>
        <mxCell id="3uLC-8A397c7G4ZFtg_c-62" value="35" style="shape=partialRectangle;html=1;whiteSpace=wrap;connectable=0;overflow=hidden;fillColor=none;top=0;left=0;bottom=0;right=0;" vertex="1" parent="3uLC-8A397c7G4ZFtg_c-56">
          <mxGeometry x="493" width="98" height="75" as="geometry" />
        </mxCell>
        <mxCell id="3uLC-8A397c7G4ZFtg_c-63" value="36" style="shape=partialRectangle;html=1;whiteSpace=wrap;connectable=0;overflow=hidden;fillColor=none;top=0;left=0;bottom=0;right=0;" vertex="1" parent="3uLC-8A397c7G4ZFtg_c-56">
          <mxGeometry x="591" width="99" height="75" as="geometry" />
        </mxCell>
        <mxCell id="3uLC-8A397c7G4ZFtg_c-64" value="" style="shape=partialRectangle;html=1;whiteSpace=wrap;collapsible=0;dropTarget=0;pointerEvents=0;fillColor=none;top=0;left=0;bottom=0;right=0;points=[[0,0.5],[1,0.5]];portConstraint=eastwest;" vertex="1" parent="3uLC-8A397c7G4ZFtg_c-39">
          <mxGeometry y="225" width="690" height="75" as="geometry" />
        </mxCell>
        <mxCell id="3uLC-8A397c7G4ZFtg_c-65" value="20" style="shape=partialRectangle;html=1;whiteSpace=wrap;connectable=0;overflow=hidden;fillColor=none;top=0;left=0;bottom=0;right=0;" vertex="1" parent="3uLC-8A397c7G4ZFtg_c-64">
          <mxGeometry width="99" height="75" as="geometry" />
        </mxCell>
        <mxCell id="3uLC-8A397c7G4ZFtg_c-66" value="21" style="shape=partialRectangle;html=1;whiteSpace=wrap;connectable=0;overflow=hidden;fillColor=none;top=0;left=0;bottom=0;right=0;" vertex="1" parent="3uLC-8A397c7G4ZFtg_c-64">
          <mxGeometry x="99" width="98" height="75" as="geometry" />
        </mxCell>
        <mxCell id="3uLC-8A397c7G4ZFtg_c-67" value="22" style="shape=partialRectangle;html=1;whiteSpace=wrap;connectable=0;overflow=hidden;fillColor=none;top=0;left=0;bottom=0;right=0;" vertex="1" parent="3uLC-8A397c7G4ZFtg_c-64">
          <mxGeometry x="197" width="99" height="75" as="geometry" />
        </mxCell>
        <mxCell id="3uLC-8A397c7G4ZFtg_c-68" value="23" style="shape=partialRectangle;html=1;whiteSpace=wrap;connectable=0;overflow=hidden;fillColor=none;top=0;left=0;bottom=0;right=0;" vertex="1" parent="3uLC-8A397c7G4ZFtg_c-64">
          <mxGeometry x="296" width="98" height="75" as="geometry" />
        </mxCell>
        <mxCell id="3uLC-8A397c7G4ZFtg_c-69" value="24" style="shape=partialRectangle;html=1;whiteSpace=wrap;connectable=0;overflow=hidden;fillColor=none;top=0;left=0;bottom=0;right=0;" vertex="1" parent="3uLC-8A397c7G4ZFtg_c-64">
          <mxGeometry x="394" width="99" height="75" as="geometry" />
        </mxCell>
        <mxCell id="3uLC-8A397c7G4ZFtg_c-70" value="25" style="shape=partialRectangle;html=1;whiteSpace=wrap;connectable=0;overflow=hidden;fillColor=none;top=0;left=0;bottom=0;right=0;" vertex="1" parent="3uLC-8A397c7G4ZFtg_c-64">
          <mxGeometry x="493" width="98" height="75" as="geometry" />
        </mxCell>
        <mxCell id="3uLC-8A397c7G4ZFtg_c-71" value="26" style="shape=partialRectangle;html=1;whiteSpace=wrap;connectable=0;overflow=hidden;fillColor=none;top=0;left=0;bottom=0;right=0;" vertex="1" parent="3uLC-8A397c7G4ZFtg_c-64">
          <mxGeometry x="591" width="99" height="75" as="geometry" />
        </mxCell>
        <mxCell id="3uLC-8A397c7G4ZFtg_c-72" value="" style="shape=partialRectangle;html=1;whiteSpace=wrap;collapsible=0;dropTarget=0;pointerEvents=0;fillColor=none;top=0;left=0;bottom=0;right=0;points=[[0,0.5],[1,0.5]];portConstraint=eastwest;" vertex="1" parent="3uLC-8A397c7G4ZFtg_c-39">
          <mxGeometry y="300" width="690" height="75" as="geometry" />
        </mxCell>
        <mxCell id="3uLC-8A397c7G4ZFtg_c-73" value="10" style="shape=partialRectangle;html=1;whiteSpace=wrap;connectable=0;overflow=hidden;fillColor=none;top=0;left=0;bottom=0;right=0;" vertex="1" parent="3uLC-8A397c7G4ZFtg_c-72">
          <mxGeometry width="99" height="75" as="geometry" />
        </mxCell>
        <mxCell id="3uLC-8A397c7G4ZFtg_c-74" value="11" style="shape=partialRectangle;html=1;whiteSpace=wrap;connectable=0;overflow=hidden;fillColor=none;top=0;left=0;bottom=0;right=0;" vertex="1" parent="3uLC-8A397c7G4ZFtg_c-72">
          <mxGeometry x="99" width="98" height="75" as="geometry" />
        </mxCell>
        <mxCell id="3uLC-8A397c7G4ZFtg_c-75" value="12" style="shape=partialRectangle;html=1;whiteSpace=wrap;connectable=0;overflow=hidden;fillColor=none;top=0;left=0;bottom=0;right=0;" vertex="1" parent="3uLC-8A397c7G4ZFtg_c-72">
          <mxGeometry x="197" width="99" height="75" as="geometry" />
        </mxCell>
        <mxCell id="3uLC-8A397c7G4ZFtg_c-76" value="13" style="shape=partialRectangle;html=1;whiteSpace=wrap;connectable=0;overflow=hidden;fillColor=none;top=0;left=0;bottom=0;right=0;" vertex="1" parent="3uLC-8A397c7G4ZFtg_c-72">
          <mxGeometry x="296" width="98" height="75" as="geometry" />
        </mxCell>
        <mxCell id="3uLC-8A397c7G4ZFtg_c-77" value="14" style="shape=partialRectangle;html=1;whiteSpace=wrap;connectable=0;overflow=hidden;fillColor=none;top=0;left=0;bottom=0;right=0;" vertex="1" parent="3uLC-8A397c7G4ZFtg_c-72">
          <mxGeometry x="394" width="99" height="75" as="geometry" />
        </mxCell>
        <mxCell id="3uLC-8A397c7G4ZFtg_c-78" value="15" style="shape=partialRectangle;html=1;whiteSpace=wrap;connectable=0;overflow=hidden;fillColor=none;top=0;left=0;bottom=0;right=0;" vertex="1" parent="3uLC-8A397c7G4ZFtg_c-72">
          <mxGeometry x="493" width="98" height="75" as="geometry" />
        </mxCell>
        <mxCell id="3uLC-8A397c7G4ZFtg_c-79" value="16" style="shape=partialRectangle;html=1;whiteSpace=wrap;connectable=0;overflow=hidden;fillColor=none;top=0;left=0;bottom=0;right=0;" vertex="1" parent="3uLC-8A397c7G4ZFtg_c-72">
          <mxGeometry x="591" width="99" height="75" as="geometry" />
        </mxCell>
        <mxCell id="3uLC-8A397c7G4ZFtg_c-80" value="" style="shape=partialRectangle;html=1;whiteSpace=wrap;collapsible=0;dropTarget=0;pointerEvents=0;fillColor=none;top=0;left=0;bottom=0;right=0;points=[[0,0.5],[1,0.5]];portConstraint=eastwest;" vertex="1" parent="3uLC-8A397c7G4ZFtg_c-39">
          <mxGeometry y="375" width="690" height="75" as="geometry" />
        </mxCell>
        <mxCell id="3uLC-8A397c7G4ZFtg_c-81" value="00" style="shape=partialRectangle;html=1;whiteSpace=wrap;connectable=0;overflow=hidden;fillColor=none;top=0;left=0;bottom=0;right=0;" vertex="1" parent="3uLC-8A397c7G4ZFtg_c-80">
          <mxGeometry width="99" height="75" as="geometry" />
        </mxCell>
        <mxCell id="3uLC-8A397c7G4ZFtg_c-82" value="01" style="shape=partialRectangle;html=1;whiteSpace=wrap;connectable=0;overflow=hidden;fillColor=none;top=0;left=0;bottom=0;right=0;" vertex="1" parent="3uLC-8A397c7G4ZFtg_c-80">
          <mxGeometry x="99" width="98" height="75" as="geometry" />
        </mxCell>
        <mxCell id="3uLC-8A397c7G4ZFtg_c-83" value="02" style="shape=partialRectangle;html=1;whiteSpace=wrap;connectable=0;overflow=hidden;fillColor=none;top=0;left=0;bottom=0;right=0;" vertex="1" parent="3uLC-8A397c7G4ZFtg_c-80">
          <mxGeometry x="197" width="99" height="75" as="geometry" />
        </mxCell>
        <mxCell id="3uLC-8A397c7G4ZFtg_c-84" value="03" style="shape=partialRectangle;html=1;whiteSpace=wrap;connectable=0;overflow=hidden;fillColor=none;top=0;left=0;bottom=0;right=0;" vertex="1" parent="3uLC-8A397c7G4ZFtg_c-80">
          <mxGeometry x="296" width="98" height="75" as="geometry" />
        </mxCell>
        <mxCell id="3uLC-8A397c7G4ZFtg_c-85" value="04" style="shape=partialRectangle;html=1;whiteSpace=wrap;connectable=0;overflow=hidden;fillColor=none;top=0;left=0;bottom=0;right=0;" vertex="1" parent="3uLC-8A397c7G4ZFtg_c-80">
          <mxGeometry x="394" width="99" height="75" as="geometry" />
        </mxCell>
        <mxCell id="3uLC-8A397c7G4ZFtg_c-86" value="05" style="shape=partialRectangle;html=1;whiteSpace=wrap;connectable=0;overflow=hidden;fillColor=none;top=0;left=0;bottom=0;right=0;" vertex="1" parent="3uLC-8A397c7G4ZFtg_c-80">
          <mxGeometry x="493" width="98" height="75" as="geometry" />
        </mxCell>
        <mxCell id="3uLC-8A397c7G4ZFtg_c-87" value="06" style="shape=partialRectangle;html=1;whiteSpace=wrap;connectable=0;overflow=hidden;fillColor=none;top=0;left=0;bottom=0;right=0;" vertex="1" parent="3uLC-8A397c7G4ZFtg_c-80">
          <mxGeometry x="591" width="99" height="75" as="geometry" />
        </mxCell>
        <mxCell id="3uLC-8A397c7G4ZFtg_c-90" value="" style="ellipse;whiteSpace=wrap;html=1;aspect=fixed;fillColor=none;" vertex="1" parent="1">
          <mxGeometry x="383.5" y="940" width="63" height="63" as="geometry" />
        </mxCell>
        <mxCell id="3uLC-8A397c7G4ZFtg_c-91" value="" style="triangle;whiteSpace=wrap;html=1;fillColor=none;shadow=0;" vertex="1" parent="1">
          <mxGeometry x="390" y="860" width="63" height="70" as="geometry" />
        </mxCell>
      </root>
    </mxGraphModel>
  </diagram>
</mxfile>
